<svg width="120" height="120" viewBox="0 0 120 120" fill="none" xmlns="http://www.w3.org/2000/svg" role="img" aria-label="BER FRY mark">
  
  <circle cx="60" cy="60" r="50" stroke="#B7A488" stroke-width="1.25" opacity="0.55"></circle>
  <circle cx="60" cy="60" r="42" stroke="#B7A488" stroke-width="0.75" opacity="0.30"></circle>
  
  <path d="M60 33&#xA;           C60 33 73 45 73 58&#xA;           C73 67.5 67 73 60 73&#xA;           C53 73 47 67.5 47 58&#xA;           C47 45 60 33 60 33 Z" fill="#C98A3D"></path>
  
  <path d="M60 47&#xA;           C60 47 66 54 66 60&#xA;           C66 65 63.5 68 60 68&#xA;           C56.5 68 54 65 54 60&#xA;           C54 54 60 47 60 47 Z" fill="#F4D7A0" opacity="0.9"></path>
  
  <line x1="60" y1="73" x2="60" y2="86" stroke="#6E5E48" stroke-width="1.5"></line>
</svg>